# xmcd
#
# Track frame offsets: 
#        150
#        20371
#        41504
#        61641
#        82462
#        109800
#        128193
#        147525
#        168077
#        187762
#        210600
#
# Disc length: 3115 seconds
#
# Revision: 5
# Processed by: cddbd v1.5.2PL0 Copyright (c) Steve Scherf et al.
# Submitted via: ExactAudioCopy v1.0b3
#
DISCID=930c290b
DTITLE=London Grammar - Truth Is A Beautiful Thing (Deluxe Edition) (C
DTITLE=D 1)
DYEAR=2017
DGENRE=Trip-Hop
TTITLE0=Rooting For You
TTITLE1=Big Picture
TTITLE2=Wild Eyed
TTITLE3=Oh Woman Oh Man
TTITLE4=Hell To The Liars
TTITLE5=Everyone Else
TTITLE6=Non Believer
TTITLE7=Bones Of Ribbon
TTITLE8=Who Am I
TTITLE9=Leave The War With Me
TTITLE10=Truth Is A Beautiful Thing
EXTD=
EXTT0=
EXTT1=
EXTT2=
EXTT3=
EXTT4=
EXTT5=
EXTT6=
EXTT7=
EXTT8=
EXTT9=
EXTT10=
PLAYORDER=
